<?xml version="1.0" encoding="UTF-8" standalone="no"?>
<svg
   xmlns:dc="http://purl.org/dc/elements/1.1/"
   xmlns:cc="http://creativecommons.org/ns#"
   xmlns:rdf="http://www.w3.org/1999/02/22-rdf-syntax-ns#"
   xmlns:svg="http://www.w3.org/2000/svg"
   xmlns="http://www.w3.org/2000/svg"
   xmlns:sodipodi="http://sodipodi.sourceforge.net/DTD/sodipodi-0.dtd"
   xmlns:inkscape="http://www.inkscape.org/namespaces/inkscape"
   width="138"
   height="23"
   viewBox="0 0 138 23"
   version="1.1"
   id="svg4"
   sodipodi:docname="logo.svg"
   inkscape:version="0.92.3 (2405546, 2018-03-11)">
  <metadata
     id="metadata10">
    <rdf:RDF>
      <cc:Work
         rdf:about="">
        <dc:format>image/svg+xml</dc:format>
        <dc:type
           rdf:resource="http://purl.org/dc/dcmitype/StillImage" />
        <dc:title></dc:title>
      </cc:Work>
    </rdf:RDF>
  </metadata>
  <defs
     id="defs8" />
  <sodipodi:namedview
     pagecolor="#ffffff"
     bordercolor="#666666"
     borderopacity="1"
     objecttolerance="10"
     gridtolerance="10"
     guidetolerance="10"
     inkscape:pageopacity="0"
     inkscape:pageshadow="2"
     inkscape:window-width="2560"
     inkscape:window-height="1027"
     id="namedview6"
     showgrid="false"
     inkscape:zoom="3.5321101"
     inkscape:cx="54.079"
     inkscape:cy="9.937468"
     inkscape:window-x="-8"
     inkscape:window-y="-8"
     inkscape:window-maximized="1"
     inkscape:current-layer="svg4"
     fit-margin-top="0"
     fit-margin-left="0"
     fit-margin-right="0"
     fit-margin-bottom="0" />
  <path
     d="m 133.16599,2.554757 v 20.125767 h -2.71921 V 2.554757 h -4.83402 V 0.31841877 H 138 V 2.554757 Z m -10.73756,11.83598 c -0.4728,0.62873 -1.06699,1.075998 -1.78257,1.341803 -0.71431,0.267082 -1.56662,0.399985 -2.5531,0.399985 -0.46257,0 -0.98647,-0.03194 -1.57043,-0.09585 -0.58526,-0.06391 -1.06827,-0.139299 -1.45035,-0.223634 v 6.867475 h -2.7192 V 0.63789557 a 13.612671,13.613548 0 0 1 2.31158,-0.4945502 20.620264,20.621594 0 0 1 2.52243,-0.1431248963 c 1.20882,0 2.23619,0.1329021963 3.08211,0.3987071963 0.84593,0.2670826 1.52956,0.70796073 2.05346,1.32519013 0.52392,0.6185071 0.90726,1.4376459 1.14877,2.4599719 0.24151,1.022326 0.3629,2.2900105 0.3629,3.801775 0,1.5552135 -0.11627,2.8535673 -0.34757,3.8976183 -0.23255,1.044048 -0.58396,1.879802 -1.05803,2.507254 z m -1.54106,-9.2801649 c -0.15078,-0.7667445 -0.38718,-1.3737508 -0.7092,-1.8210183 A 2.5888737,2.5890407 0 0 0 118.95402,2.3477359 C 118.46078,2.1662731 117.8717,2.0755417 117.18679,2.0755417 h -2.11481 V 13.896187 h 2.11481 c 0.68491,0 1.27399,-0.09074 1.76723,-0.272194 a 2.5812068,2.5813733 0 0 0 1.22415,-0.941818 c 0.32202,-0.447269 0.55842,-1.054274 0.7092,-1.821019 0.15206,-0.766744 0.22746,-1.725175 0.22746,-2.8752919 0,-1.1501169 -0.0754,-2.1085475 -0.22746,-2.875292 z M 105.57903,16.931217 h -6.042841 l -1.359607,5.749307 H 95.457371 L 100.59423,0.31841877 h 3.92675 l 5.13686,22.36210523 h -2.71921 z M 102.6183,3.5131877 h -0.12139 L 99.989819,14.694879 H 105.1254 Z M 89.327644,6.0690028 H 89.17686 L 84.796476,19.80523 h -2.72049 L 77.695602,6.0690028 H 77.544818 L 76.638841,22.680524 H 73.919629 L 75.127173,0.31841877 h 3.323624 L 83.375535,15.65331 h 0.121389 L 88.421663,0.31841877 h 3.322344 L 92.952833,22.680524 H 90.233622 Z M 69.438296,20.603924 c -0.563522,0.874087 -1.243323,1.491317 -2.039409,1.852965 C 66.602802,22.818536 65.691712,23 64.664341,23 c -1.027372,0 -1.93846,-0.181464 -2.734546,-0.543111 -0.794807,-0.361648 -1.474609,-0.978878 -2.039409,-1.852965 -0.56352,-0.872812 -0.991592,-2.048486 -1.282936,-3.529581 -0.292622,-1.479817 -0.438294,-3.337894 -0.438294,-5.574234 0,-2.2363374 0.145672,-4.0944149 0.438294,-5.5742318 0.291344,-1.4798169 0.719416,-2.6567698 1.282936,-3.5308587 0.5648,-0.8728109 1.244602,-1.49004013 2.039409,-1.85296593 0.796086,-0.3616479 1.707174,-0.5418327963 2.734546,-0.5418327963 1.027371,0 1.938461,0.1801848963 2.734546,0.5418327963 0.796086,0.3629258 1.475887,0.98015503 2.039409,1.85296593 0.563521,0.8740889 0.991592,2.0510418 1.284214,3.5308587 0.291344,1.4798169 0.438294,3.3378944 0.438294,5.5742318 0,2.23634 -0.14695,4.094417 -0.438294,5.574234 -0.292622,1.481095 -0.720693,2.656769 -1.284214,3.529581 z M 68.124691,6.771852 C 67.912573,5.5373933 67.635285,4.5572381 67.292827,3.8326645 66.950371,3.1093689 66.547855,2.6084291 66.085282,2.3311232 A 2.7460463,2.7462234 0 0 0 64.664341,1.9170811 c -0.483019,0 -0.955813,0.1380144 -1.419664,0.4140421 -0.463851,0.2773059 -0.866365,0.7782457 -1.208822,1.5015413 -0.342457,0.7245736 -0.618468,1.7047288 -0.830586,2.9391875 -0.210841,1.2357366 -0.316901,2.8113966 -0.316901,4.728257 0,1.916862 0.106057,3.492522 0.316901,4.728259 0.212118,1.23446 0.488129,2.214615 0.830586,2.93791 0.342457,0.724573 0.744971,1.225513 1.208822,1.501542 a 2.7345458,2.7347221 0 0 0 1.419664,0.415318 2.7345458,2.7347221 0 0 0 1.420941,-0.415318 c 0.462573,-0.276029 0.865089,-0.776969 1.207545,-1.501542 0.342458,-0.723295 0.619746,-1.70345 0.831864,-2.93791 0.210842,-1.235737 0.316901,-2.811397 0.316901,-4.728259 0,-1.9168604 -0.106057,-3.4925204 -0.316901,-4.728257 z m -15.99837,5.686689 H 45.781919 V 22.680524 H 43.062708 V 0.31841877 h 2.719211 V 10.222202 h 6.344402 V 0.31841877 h 2.719211 V 22.680524 h -2.719211 z m -14.420257,10.221983 -3.777251,-9.58303 -3.775974,9.58303 H 27.433628 L 31.964796,11.180633 27.885978,0.31841877 h 2.719213 l 3.323622,8.94535283 3.323624,-8.94535283 h 2.719211 L 35.89283,11.180633 40.425276,22.680524 Z M 14.949277,0.31841877 H 25.221713 V 2.554757 h -7.553225 v 7.3479684 h 6.647246 v 2.2363366 h -6.647246 v 8.305122 h 7.553225 v 2.23634 H 14.949277 Z M 7.5532244,22.680524 H 4.8340125 V 2.554757 H 0 V 0.31841877 H 12.387237 V 2.554757 H 7.5532244 Z"
     id="path2"
     style="fill:#ffffff;fill-opacity:1;fill-rule:evenodd;stroke-width:1.27786636"
     inkscape:connector-curvature="0" />
</svg>
